ISO-10303-21;
HEADER;
/* Generated by software containing ST-Developer
 * from STEP Tools, Inc. (www.steptools.com) 
 */
/* OPTION: using custom renumber hook */

FILE_DESCRIPTION(
/* description */ ('STEP AP242 Edition 2',
'CAx-IF Rec.Pracs.---Representation and Presentation of Product Manufa
cturing Information (PMI)---4.0---2014-10-13',
'CAx-IF Rec.Pracs.---3D Tessellated Geometry---0.4---2014-09-14','2;1',
'CAx-IF Rec.Pracs.---User Defined Attributes---1.5---2016-08-15'),
/* implementation_level */ '2;1');

FILE_NAME(
/* name */ 'clampbody',
/* time_stamp */ '2026-06-29T12:11:37Z',
/* author */ (''),
/* organization */ (''),
/* preprocessor_version */ 'ST-DEVELOPER v20',
/* originating_system */ 'ONSHAPE BY PTC INC, 1.217',
/* authorisation */ '  ');

FILE_SCHEMA (('AP242_MANAGED_MODEL_BASED_3D_ENGINEERING_MIM_LF { 1 0 10303 442 3 1 4 }'));
ENDSEC;

DATA;
#10=SHAPE_REPRESENTATION_RELATIONSHIP('','',#216,#11);
#11=ADVANCED_BREP_SHAPE_REPRESENTATION('',(#214),#389);
#12=CONICAL_SURFACE('',#240,0.009,0.785398163397448);
#13=CONICAL_SURFACE('',#241,0.009,0.785398163397448);
#14=TOROIDAL_SURFACE('',#238,0.008,0.002);
#15=TOROIDAL_SURFACE('',#239,0.008,0.002);
#16=B_SPLINE_CURVE_WITH_KNOTS('',3,(#341,#342,#343,#344,#345),
 .UNSPECIFIED.,.F.,.F.,(4,1,4),(0.,0.00156726666376068,0.00313453332752135),
 .UNSPECIFIED.);
#17=B_SPLINE_CURVE_WITH_KNOTS('',3,(#346,#347,#348,#349),.UNSPECIFIED.,
 .F.,.F.,(4,4),(0.,0.00141818063366557),.UNSPECIFIED.);
#18=B_SPLINE_CURVE_WITH_KNOTS('',3,(#350,#351,#352,#353),.UNSPECIFIED.,
 .F.,.F.,(4,4),(0.,0.00141818063366557),.UNSPECIFIED.);
#19=B_SPLINE_CURVE_WITH_KNOTS('',3,(#354,#355,#356,#357,#358),
 .UNSPECIFIED.,.F.,.F.,(4,1,4),(0.,0.00156725446027725,0.0031345089205545),
 .UNSPECIFIED.);
#20=B_SPLINE_CURVE_WITH_KNOTS('',3,(#360,#361,#362,#363,#364),
 .UNSPECIFIED.,.F.,.F.,(4,1,4),(0.,0.00156725446027725,0.0031345089205545),
 .UNSPECIFIED.);
#21=B_SPLINE_CURVE_WITH_KNOTS('',3,(#368,#369,#370,#371,#372),
 .UNSPECIFIED.,.F.,.F.,(4,1,4),(0.,0.00156726666376068,0.00313453332752135),
 .UNSPECIFIED.);
#22=B_SPLINE_CURVE_WITH_KNOTS('',3,(#373,#374,#375,#376),.UNSPECIFIED.,
 .F.,.F.,(4,4),(0.,0.00141818063366557),.UNSPECIFIED.);
#23=B_SPLINE_CURVE_WITH_KNOTS('',3,(#377,#378,#379,#380),.UNSPECIFIED.,
 .F.,.F.,(4,4),(0.,0.00141818063366557),.UNSPECIFIED.);
#24=CYLINDRICAL_SURFACE('',#220,0.0075);
#25=CYLINDRICAL_SURFACE('',#224,0.01);
#26=CIRCLE('',#219,0.009);
#27=CIRCLE('',#221,0.0075);
#28=CIRCLE('',#222,0.0075);
#29=CIRCLE('',#225,0.01);
#30=CIRCLE('',#226,0.01);
#31=CIRCLE('',#227,0.01);
#32=CIRCLE('',#228,0.01);
#33=CIRCLE('',#229,0.01);
#34=CIRCLE('',#231,0.009);
#35=CIRCLE('',#236,0.008);
#36=CIRCLE('',#237,0.008);
#37=ORIENTED_EDGE('',*,*,#91,.T.);
#38=ORIENTED_EDGE('',*,*,#92,.T.);
#39=ORIENTED_EDGE('',*,*,#93,.F.);
#40=ORIENTED_EDGE('',*,*,#94,.T.);
#41=ORIENTED_EDGE('',*,*,#93,.T.);
#42=ORIENTED_EDGE('',*,*,#95,.T.);
#43=ORIENTED_EDGE('',*,*,#96,.T.);
#44=ORIENTED_EDGE('',*,*,#97,.F.);
#45=ORIENTED_EDGE('',*,*,#98,.T.);
#46=ORIENTED_EDGE('',*,*,#99,.T.);
#47=ORIENTED_EDGE('',*,*,#100,.T.);
#48=ORIENTED_EDGE('',*,*,#101,.F.);
#49=ORIENTED_EDGE('',*,*,#102,.T.);
#50=ORIENTED_EDGE('',*,*,#103,.T.);
#51=ORIENTED_EDGE('',*,*,#104,.F.);
#52=ORIENTED_EDGE('',*,*,#105,.T.);
#53=ORIENTED_EDGE('',*,*,#94,.F.);
#54=ORIENTED_EDGE('',*,*,#103,.F.);
#55=ORIENTED_EDGE('',*,*,#106,.F.);
#56=ORIENTED_EDGE('',*,*,#107,.T.);
#57=ORIENTED_EDGE('',*,*,#97,.T.);
#58=ORIENTED_EDGE('',*,*,#108,.T.);
#59=ORIENTED_EDGE('',*,*,#104,.T.);
#60=ORIENTED_EDGE('',*,*,#109,.T.);
#61=ORIENTED_EDGE('',*,*,#95,.F.);
#62=ORIENTED_EDGE('',*,*,#110,.T.);
#63=ORIENTED_EDGE('',*,*,#99,.F.);
#64=ORIENTED_EDGE('',*,*,#111,.T.);
#65=ORIENTED_EDGE('',*,*,#112,.T.);
#66=ORIENTED_EDGE('',*,*,#113,.T.);
#67=ORIENTED_EDGE('',*,*,#101,.T.);
#68=ORIENTED_EDGE('',*,*,#114,.T.);
#69=ORIENTED_EDGE('',*,*,#91,.F.);
#70=ORIENTED_EDGE('',*,*,#115,.T.);
#71=ORIENTED_EDGE('',*,*,#112,.F.);
#72=ORIENTED_EDGE('',*,*,#116,.T.);
#73=ORIENTED_EDGE('',*,*,#106,.T.);
#74=ORIENTED_EDGE('',*,*,#117,.T.);
#75=ORIENTED_EDGE('',*,*,#111,.F.);
#76=ORIENTED_EDGE('',*,*,#98,.F.);
#77=ORIENTED_EDGE('',*,*,#107,.F.);
#78=ORIENTED_EDGE('',*,*,#116,.F.);
#79=ORIENTED_EDGE('',*,*,#110,.F.);
#80=ORIENTED_EDGE('',*,*,#102,.F.);
#81=ORIENTED_EDGE('',*,*,#113,.F.);
#82=ORIENTED_EDGE('',*,*,#117,.F.);
#83=ORIENTED_EDGE('',*,*,#108,.F.);
#84=ORIENTED_EDGE('',*,*,#96,.F.);
#85=ORIENTED_EDGE('',*,*,#109,.F.);
#86=ORIENTED_EDGE('',*,*,#105,.F.);
#87=ORIENTED_EDGE('',*,*,#114,.F.);
#88=ORIENTED_EDGE('',*,*,#100,.F.);
#89=ORIENTED_EDGE('',*,*,#115,.F.);
#90=ORIENTED_EDGE('',*,*,#92,.F.);
#91=EDGE_CURVE('',#118,#119,#137,.T.);
#92=EDGE_CURVE('',#119,#118,#26,.T.);
#93=EDGE_CURVE('',#120,#120,#27,.T.);
#94=EDGE_CURVE('',#121,#121,#28,.T.);
#95=EDGE_CURVE('',#122,#123,#138,.T.);
#96=EDGE_CURVE('',#123,#124,#29,.F.);
#97=EDGE_CURVE('',#125,#124,#139,.T.);
#98=EDGE_CURVE('',#125,#126,#30,.F.);
#99=EDGE_CURVE('',#126,#127,#140,.T.);
#100=EDGE_CURVE('',#127,#128,#31,.F.);
#101=EDGE_CURVE('',#129,#128,#141,.T.);
#102=EDGE_CURVE('',#129,#122,#32,.F.);
#103=EDGE_CURVE('',#130,#130,#33,.T.);
#104=EDGE_CURVE('',#131,#132,#142,.T.);
#105=EDGE_CURVE('',#131,#132,#34,.T.);
#106=EDGE_CURVE('',#133,#134,#143,.T.);
#107=EDGE_CURVE('',#133,#125,#16,.T.);
#108=EDGE_CURVE('',#124,#131,#17,.T.);
#109=EDGE_CURVE('',#132,#123,#18,.T.);
#110=EDGE_CURVE('',#122,#134,#19,.T.);
#111=EDGE_CURVE('',#126,#135,#20,.T.);
#112=EDGE_CURVE('',#135,#136,#144,.T.);
#113=EDGE_CURVE('',#136,#129,#21,.T.);
#114=EDGE_CURVE('',#128,#119,#22,.T.);
#115=EDGE_CURVE('',#118,#127,#23,.T.);
#116=EDGE_CURVE('',#135,#133,#35,.T.);
#117=EDGE_CURVE('',#134,#136,#36,.T.);
#118=VERTEX_POINT('',#303);
#119=VERTEX_POINT('',#304);
#120=VERTEX_POINT('',#308);
#121=VERTEX_POINT('',#310);
#122=VERTEX_POINT('',#314);
#123=VERTEX_POINT('',#315);
#124=VERTEX_POINT('',#317);
#125=VERTEX_POINT('',#319);
#126=VERTEX_POINT('',#321);
#127=VERTEX_POINT('',#323);
#128=VERTEX_POINT('',#325);
#129=VERTEX_POINT('',#327);
#130=VERTEX_POINT('',#330);
#131=VERTEX_POINT('',#333);
#132=VERTEX_POINT('',#334);
#133=VERTEX_POINT('',#339);
#134=VERTEX_POINT('',#340);
#135=VERTEX_POINT('',#365);
#136=VERTEX_POINT('',#367);
#137=LINE('',#302,#145);
#138=LINE('',#313,#146);
#139=LINE('',#318,#147);
#140=LINE('',#322,#148);
#141=LINE('',#326,#149);
#142=LINE('',#332,#150);
#143=LINE('',#338,#151);
#144=LINE('',#366,#152);
#145=VECTOR('',#246,1.);
#146=VECTOR('',#259,1.);
#147=VECTOR('',#262,1.);
#148=VECTOR('',#265,1.);
#149=VECTOR('',#268,1.);
#150=VECTOR('',#275,1.);
#151=VECTOR('',#282,1.);
#152=VECTOR('',#285,1.);
#153=EDGE_LOOP('',(#37,#38));
#154=EDGE_LOOP('',(#39));
#155=EDGE_LOOP('',(#40));
#156=EDGE_LOOP('',(#41));
#157=EDGE_LOOP('',(#42,#43,#44,#45,#46,#47,#48,#49));
#158=EDGE_LOOP('',(#50));
#159=EDGE_LOOP('',(#51,#52));
#160=EDGE_LOOP('',(#53));
#161=EDGE_LOOP('',(#54));
#162=EDGE_LOOP('',(#55,#56,#57,#58,#59,#60,#61,#62));
#163=EDGE_LOOP('',(#63,#64,#65,#66,#67,#68,#69,#70));
#164=EDGE_LOOP('',(#71,#72,#73,#74));
#165=EDGE_LOOP('',(#75,#76,#77,#78));
#166=EDGE_LOOP('',(#79,#80,#81,#82));
#167=EDGE_LOOP('',(#83,#84,#85,#86));
#168=EDGE_LOOP('',(#87,#88,#89,#90));
#169=FACE_BOUND('',#153,.T.);
#170=FACE_BOUND('',#154,.T.);
#171=FACE_BOUND('',#155,.T.);
#172=FACE_BOUND('',#156,.T.);
#173=FACE_BOUND('',#157,.T.);
#174=FACE_BOUND('',#158,.T.);
#175=FACE_BOUND('',#159,.T.);
#176=FACE_BOUND('',#160,.T.);
#177=FACE_BOUND('',#161,.T.);
#178=FACE_BOUND('',#162,.T.);
#179=FACE_BOUND('',#163,.T.);
#180=FACE_BOUND('',#164,.T.);
#181=FACE_BOUND('',#165,.T.);
#182=FACE_BOUND('',#166,.T.);
#183=FACE_BOUND('',#167,.T.);
#184=FACE_BOUND('',#168,.T.);
#185=PLANE('',#218);
#186=PLANE('',#223);
#187=PLANE('',#230);
#188=PLANE('',#232);
#189=PLANE('',#233);
#190=PLANE('',#234);
#191=PLANE('',#235);
#192=ADVANCED_FACE('',(#169),#185,.T.);
#193=ADVANCED_FACE('',(#170,#171),#24,.T.);
#194=ADVANCED_FACE('',(#172),#186,.T.);
#195=ADVANCED_FACE('',(#173,#174),#25,.T.);
#196=ADVANCED_FACE('',(#175),#187,.T.);
#197=ADVANCED_FACE('',(#176,#177),#188,.F.);
#198=ADVANCED_FACE('',(#178),#189,.F.);
#199=ADVANCED_FACE('',(#179),#190,.T.);
#200=ADVANCED_FACE('',(#180),#191,.T.);
#201=ADVANCED_FACE('',(#181),#14,.T.);
#202=ADVANCED_FACE('',(#182),#15,.T.);
#203=ADVANCED_FACE('',(#183),#12,.T.);
#204=ADVANCED_FACE('',(#184),#13,.T.);
#205=CLOSED_SHELL('',(#192,#193,#194,#195,#196,#197,#198,#199,#200,#201,
#202,#203,#204));
#206=STYLED_ITEM('',(#207),#214);
#207=PRESENTATION_STYLE_ASSIGNMENT((#208));
#208=SURFACE_STYLE_USAGE(.BOTH.,#209);
#209=SURFACE_SIDE_STYLE('',(#210));
#210=SURFACE_STYLE_FILL_AREA(#211);
#211=FILL_AREA_STYLE('',(#212));
#212=FILL_AREA_STYLE_COLOUR('',#213);
#213=COLOUR_RGB('',0.4,0.4,0.4);
#214=MANIFOLD_SOLID_BREP('Part 1',#205);
#215=SHAPE_DEFINITION_REPRESENTATION(#394,#216);
#216=SHAPE_REPRESENTATION('Part 1',(#217),#389);
#217=AXIS2_PLACEMENT_3D('',#300,#242,#243);
#218=AXIS2_PLACEMENT_3D('',#301,#244,#245);
#219=AXIS2_PLACEMENT_3D('',#305,#247,#248);
#220=AXIS2_PLACEMENT_3D('',#306,#249,#250);
#221=AXIS2_PLACEMENT_3D('',#307,#251,#252);
#222=AXIS2_PLACEMENT_3D('',#309,#253,#254);
#223=AXIS2_PLACEMENT_3D('',#311,#255,#256);
#224=AXIS2_PLACEMENT_3D('',#312,#257,#258);
#225=AXIS2_PLACEMENT_3D('',#316,#260,#261);
#226=AXIS2_PLACEMENT_3D('',#320,#263,#264);
#227=AXIS2_PLACEMENT_3D('',#324,#266,#267);
#228=AXIS2_PLACEMENT_3D('',#328,#269,#270);
#229=AXIS2_PLACEMENT_3D('',#329,#271,#272);
#230=AXIS2_PLACEMENT_3D('',#331,#273,#274);
#231=AXIS2_PLACEMENT_3D('',#335,#276,#277);
#232=AXIS2_PLACEMENT_3D('',#336,#278,#279);
#233=AXIS2_PLACEMENT_3D('',#337,#280,#281);
#234=AXIS2_PLACEMENT_3D('',#359,#283,#284);
#235=AXIS2_PLACEMENT_3D('',#381,#286,#287);
#236=AXIS2_PLACEMENT_3D('',#382,#288,#289);
#237=AXIS2_PLACEMENT_3D('',#383,#290,#291);
#238=AXIS2_PLACEMENT_3D('',#384,#292,#293);
#239=AXIS2_PLACEMENT_3D('',#385,#294,#295);
#240=AXIS2_PLACEMENT_3D('',#386,#296,#297);
#241=AXIS2_PLACEMENT_3D('',#387,#298,#299);
#242=DIRECTION('',(0.,0.,1.));
#243=DIRECTION('',(1.,0.,0.));
#244=DIRECTION('',(0.,0.,-1.));
#245=DIRECTION('',(1.,0.,0.));
#246=DIRECTION('',(-1.,0.,0.));
#247=DIRECTION('',(0.,0.,-1.));
#248=DIRECTION('',(-1.,0.,0.));
#249=DIRECTION('',(0.,0.,-1.));
#250=DIRECTION('',(-1.,0.,0.));
#251=DIRECTION('',(0.,0.,1.));
#252=DIRECTION('',(1.,0.,0.));
#253=DIRECTION('',(0.,0.,1.));
#254=DIRECTION('',(1.,0.,0.));
#255=DIRECTION('',(0.,0.,1.));
#256=DIRECTION('',(1.,0.,0.));
#257=DIRECTION('',(0.,0.,1.));
#258=DIRECTION('',(1.,0.,0.));
#259=DIRECTION('',(0.,0.,1.));
#260=DIRECTION('',(0.,0.,-1.));
#261=DIRECTION('',(-1.,0.,0.));
#262=DIRECTION('',(0.,0.,1.));
#263=DIRECTION('',(0.,0.,-1.));
#264=DIRECTION('',(-1.,0.,0.));
#265=DIRECTION('',(0.,0.,1.));
#266=DIRECTION('',(0.,0.,-1.));
#267=DIRECTION('',(-1.,0.,0.));
#268=DIRECTION('',(0.,0.,1.));
#269=DIRECTION('',(0.,0.,-1.));
#270=DIRECTION('',(-1.,0.,0.));
#271=DIRECTION('',(0.,0.,-1.));
#272=DIRECTION('',(-1.,0.,0.));
#273=DIRECTION('',(0.,0.,-1.));
#274=DIRECTION('',(1.,0.,0.));
#275=DIRECTION('',(-1.,1.22909321668992E-16,0.));
#276=DIRECTION('',(0.,0.,-1.));
#277=DIRECTION('',(-1.,0.,0.));
#278=DIRECTION('',(0.,0.,-1.));
#279=DIRECTION('',(1.,0.,0.));
#280=DIRECTION('',(1.22909321668992E-16,1.,0.));
#281=DIRECTION('',(-1.,1.22909321668992E-16,0.));
#282=DIRECTION('',(-1.,1.22909321668992E-16,0.));
#283=DIRECTION('',(0.,1.,0.));
#284=DIRECTION('',(0.,0.,1.));
#285=DIRECTION('',(-1.,0.,0.));
#286=DIRECTION('',(0.,0.,-1.));
#287=DIRECTION('',(1.,0.,0.));
#288=DIRECTION('',(0.,0.,-1.));
#289=DIRECTION('',(-1.,0.,0.));
#290=DIRECTION('',(0.,0.,-1.));
#291=DIRECTION('',(-1.,0.,0.));
#292=DIRECTION('',(0.,0.,-1.));
#293=DIRECTION('',(-1.,0.,0.));
#294=DIRECTION('',(0.,0.,-1.));
#295=DIRECTION('',(-1.,0.,0.));
#296=DIRECTION('',(0.,0.,1.));
#297=DIRECTION('',(1.,0.,0.));
#298=DIRECTION('',(0.,0.,1.));
#299=DIRECTION('',(1.,0.,0.));
#300=CARTESIAN_POINT('',(0.,0.,0.));
#301=CARTESIAN_POINT('',(0.,0.,-0.004));
#302=CARTESIAN_POINT('',(-0.00058538595214486,0.001,-0.004));
#303=CARTESIAN_POINT('',(0.00894427190999916,0.001,-0.004));
#304=CARTESIAN_POINT('',(-0.00894427190999916,0.001,-0.004));
#305=CARTESIAN_POINT('',(0.,-6.12323399573677E-19,-0.004));
#306=CARTESIAN_POINT('',(0.,4.59242549680257E-19,0.032));
#307=CARTESIAN_POINT('',(0.,4.59242549680257E-19,0.032));
#308=CARTESIAN_POINT('',(0.0075,4.59242549680257E-19,0.032));
#309=CARTESIAN_POINT('',(0.,4.59242549680257E-19,0.));
#310=CARTESIAN_POINT('',(0.0075,4.59242549680257E-19,0.));
#311=CARTESIAN_POINT('',(0.,0.,0.032));
#312=CARTESIAN_POINT('',(0.,-6.12323399573677E-19,-0.004));
#313=CARTESIAN_POINT('',(-0.0099498743710662,-0.001,-0.009));
#314=CARTESIAN_POINT('',(-0.0099498743710662,-0.001,-0.007));
#315=CARTESIAN_POINT('',(-0.0099498743710662,-0.001,-0.003));
#316=CARTESIAN_POINT('',(0.,-6.12323399573677E-19,-0.003));
#317=CARTESIAN_POINT('',(0.0099498743710662,-0.001,-0.003));
#318=CARTESIAN_POINT('',(0.0099498743710662,-0.001,-0.009));
#319=CARTESIAN_POINT('',(0.0099498743710662,-0.001,-0.007));
#320=CARTESIAN_POINT('',(0.,-6.12323399573677E-19,-0.007));
#321=CARTESIAN_POINT('',(0.0099498743710662,0.001,-0.007));
#322=CARTESIAN_POINT('',(0.0099498743710662,0.001,-0.009));
#323=CARTESIAN_POINT('',(0.0099498743710662,0.001,-0.003));
#324=CARTESIAN_POINT('',(0.,-6.12323399573677E-19,-0.003));
#325=CARTESIAN_POINT('',(-0.0099498743710662,0.001,-0.003));
#326=CARTESIAN_POINT('',(-0.0099498743710662,0.001,-0.009));
#327=CARTESIAN_POINT('',(-0.0099498743710662,0.001,-0.007));
#328=CARTESIAN_POINT('',(0.,-6.12323399573677E-19,-0.007));
#329=CARTESIAN_POINT('',(0.,-6.12323399573677E-19,0.));
#330=CARTESIAN_POINT('',(-0.01,-6.12323399573677E-19,0.));
#331=CARTESIAN_POINT('',(0.,0.,-0.004));
#332=CARTESIAN_POINT('',(-0.000585385952144862,-0.001,-0.004));
#333=CARTESIAN_POINT('',(0.00894427190999916,-0.001,-0.004));
#334=CARTESIAN_POINT('',(-0.00894427190999916,-0.001,-0.004));
#335=CARTESIAN_POINT('',(0.,-6.12323399573677E-19,-0.004));
#336=CARTESIAN_POINT('',(0.,0.,0.));
#337=CARTESIAN_POINT('',(-0.000585385952144862,-0.001,-0.009));
#338=CARTESIAN_POINT('',(-0.000585385952144862,-0.001,-0.009));
#339=CARTESIAN_POINT('',(0.00793725393319377,-0.001,-0.009));
#340=CARTESIAN_POINT('',(-0.00793725393319377,-0.001,-0.009));
#341=CARTESIAN_POINT('',(0.00793725393319377,-0.001,-0.009));
#342=CARTESIAN_POINT('',(0.00846715960850226,-0.001,-0.009));
#343=CARTESIAN_POINT('',(0.00950726520958964,-0.001,-0.00856949519482538));
#344=CARTESIAN_POINT('',(0.0099498743710662,-0.001,-0.00753001089335065));
#345=CARTESIAN_POINT('',(0.0099498743710662,-0.001,-0.007));
#346=CARTESIAN_POINT('',(0.0099498743710662,-0.001,-0.003));
#347=CARTESIAN_POINT('',(0.00961476715901504,-0.001,-0.00333342746607473));
#348=CARTESIAN_POINT('',(0.00927957680093686,-0.001,-0.00366677132030007));
#349=CARTESIAN_POINT('',(0.00894427190999916,-0.001,-0.004));
#350=CARTESIAN_POINT('',(-0.00894427190999916,-0.001,-0.004));
#351=CARTESIAN_POINT('',(-0.00927957680093686,-0.001,-0.00366677132030007));
#352=CARTESIAN_POINT('',(-0.00961476715901504,-0.001,-0.00333342746607473));
#353=CARTESIAN_POINT('',(-0.0099498743710662,-0.001,-0.003));
#354=CARTESIAN_POINT('',(-0.0099498743710662,-0.001,-0.007));
#355=CARTESIAN_POINT('',(-0.0099498743710662,-0.001,-0.00752995288812825));
#356=CARTESIAN_POINT('',(-0.00950936011877805,-0.000999999999999998,-0.00856747251805409));
#357=CARTESIAN_POINT('',(-0.00846711127818967,-0.001,-0.009));
#358=CARTESIAN_POINT('',(-0.00793725393319377,-0.001,-0.009));
#359=CARTESIAN_POINT('',(-0.00058538595214486,0.001,-0.009));
#360=CARTESIAN_POINT('',(0.0099498743710662,0.001,-0.007));
#361=CARTESIAN_POINT('',(0.0099498743710662,0.001,-0.00752995288812825));
#362=CARTESIAN_POINT('',(0.00950936011877805,0.001,-0.00856747251805409));
#363=CARTESIAN_POINT('',(0.00846711127818967,0.001,-0.009));
#364=CARTESIAN_POINT('',(0.00793725393319377,0.001,-0.009));
#365=CARTESIAN_POINT('',(0.00793725393319377,0.001,-0.009));
#366=CARTESIAN_POINT('',(-0.00058538595214486,0.001,-0.009));
#367=CARTESIAN_POINT('',(-0.00793725393319377,0.001,-0.009));
#368=CARTESIAN_POINT('',(-0.00793725393319377,0.001,-0.009));
#369=CARTESIAN_POINT('',(-0.00846715960850226,0.001,-0.009));
#370=CARTESIAN_POINT('',(-0.00950726520958964,0.001,-0.00856949519482538));
#371=CARTESIAN_POINT('',(-0.0099498743710662,0.001,-0.00753001089335065));
#372=CARTESIAN_POINT('',(-0.0099498743710662,0.001,-0.007));
#373=CARTESIAN_POINT('',(-0.0099498743710662,0.001,-0.003));
#374=CARTESIAN_POINT('',(-0.00961476715901504,0.001,-0.00333342746607473));
#375=CARTESIAN_POINT('',(-0.00927957680093686,0.001,-0.00366677132030007));
#376=CARTESIAN_POINT('',(-0.00894427190999916,0.001,-0.004));
#377=CARTESIAN_POINT('',(0.00894427190999916,0.001,-0.004));
#378=CARTESIAN_POINT('',(0.00927957680093686,0.001,-0.00366677132030007));
#379=CARTESIAN_POINT('',(0.00961476715901504,0.001,-0.00333342746607473));
#380=CARTESIAN_POINT('',(0.0099498743710662,0.001,-0.003));
#381=CARTESIAN_POINT('',(-0.00058538595214486,0.,-0.009));
#382=CARTESIAN_POINT('',(0.,-6.12323399573677E-19,-0.009));
#383=CARTESIAN_POINT('',(0.,-6.12323399573677E-19,-0.009));
#384=CARTESIAN_POINT('',(0.,-6.12323399573677E-19,-0.007));
#385=CARTESIAN_POINT('',(0.,-6.12323399573677E-19,-0.007));
#386=CARTESIAN_POINT('',(0.,-6.12323399573677E-19,-0.004));
#387=CARTESIAN_POINT('',(0.,-6.12323399573677E-19,-0.004));
#388=MECHANICAL_DESIGN_GEOMETRIC_PRESENTATION_REPRESENTATION('',(#206),
#389);
#389=(
GEOMETRIC_REPRESENTATION_CONTEXT(3)
GLOBAL_UNCERTAINTY_ASSIGNED_CONTEXT((#390))
GLOBAL_UNIT_ASSIGNED_CONTEXT((#393,#392,#391))
REPRESENTATION_CONTEXT('Part 1','TOP_LEVEL_ASSEMBLY_PART')
);
#390=UNCERTAINTY_MEASURE_WITH_UNIT(LENGTH_MEASURE(2.E-5),#393,
'DISTANCE_ACCURACY_VALUE','Maximum Tolerance applied to model');
#391=(
NAMED_UNIT(*)
SI_UNIT($,.STERADIAN.)
SOLID_ANGLE_UNIT()
);
#392=(
NAMED_UNIT(*)
PLANE_ANGLE_UNIT()
SI_UNIT($,.RADIAN.)
);
#393=(
LENGTH_UNIT()
NAMED_UNIT(*)
SI_UNIT($,.METRE.)
);
#394=PRODUCT_DEFINITION_SHAPE('','',#395);
#395=PRODUCT_DEFINITION('','',#397,#396);
#396=PRODUCT_DEFINITION_CONTEXT('',#403,'design');
#397=PRODUCT_DEFINITION_FORMATION_WITH_SPECIFIED_SOURCE('','',#399,
 .NOT_KNOWN.);
#398=PRODUCT_RELATED_PRODUCT_CATEGORY('','',(#399));
#399=PRODUCT('Part 1','Part 1','Part 1',(#401));
#400=PRODUCT_CATEGORY('','');
#401=PRODUCT_CONTEXT('',#403,'mechanical');
#402=APPLICATION_PROTOCOL_DEFINITION('international standard',
'ap242_managed_model_based_3d_engineering',2020,#403);
#403=APPLICATION_CONTEXT('managed model based 3d engineering');
ENDSEC;
END-ISO-10303-21;
