ISO-10303-21;
HEADER;
/* Generated by software containing ST-Developer
 * from STEP Tools, Inc. (www.steptools.com) 
 */
/* OPTION: using custom renumber hook */

FILE_DESCRIPTION(
/* description */ ('STEP AP242 Edition 2',
'CAx-IF Rec.Pracs.---Representation and Presentation of Product Manufa
cturing Information (PMI)---4.0---2014-10-13',
'CAx-IF Rec.Pracs.---3D Tessellated Geometry---0.4---2014-09-14','2;1',
'CAx-IF Rec.Pracs.---User Defined Attributes---1.5---2016-08-15'),
/* implementation_level */ '2;1');

FILE_NAME(
/* name */ 'shift-knob',
/* time_stamp */ '2026-06-29T12:11:21Z',
/* author */ (''),
/* organization */ (''),
/* preprocessor_version */ 'ST-DEVELOPER v20',
/* originating_system */ 'ONSHAPE BY PTC INC, 1.217',
/* authorisation */ '  ');

FILE_SCHEMA (('AP242_MANAGED_MODEL_BASED_3D_ENGINEERING_MIM_LF { 1 0 10303 442 3 1 4 }'));
ENDSEC;

DATA;
#10=SHAPE_REPRESENTATION_RELATIONSHIP('','',#122,#11);
#11=ADVANCED_BREP_SHAPE_REPRESENTATION('',(#120),#209);
#12=SPHERICAL_SURFACE('',#133,0.0161824088833465);
#13=PLANE('',#132);
#14=PLANE('',#139);
#15=CYLINDRICAL_SURFACE('',#127,0.005);
#16=CYLINDRICAL_SURFACE('',#129,0.0075);
#17=CYLINDRICAL_SURFACE('',#137,0.004);
#18=CYLINDRICAL_SURFACE('',#141,0.0025);
#19=ORIENTED_EDGE('',*,*,#37,.F.);
#20=ORIENTED_EDGE('',*,*,#38,.T.);
#21=ORIENTED_EDGE('',*,*,#37,.T.);
#22=ORIENTED_EDGE('',*,*,#39,.F.);
#23=ORIENTED_EDGE('',*,*,#40,.F.);
#24=ORIENTED_EDGE('',*,*,#41,.T.);
#25=ORIENTED_EDGE('',*,*,#39,.T.);
#26=ORIENTED_EDGE('',*,*,#40,.T.);
#27=ORIENTED_EDGE('',*,*,#42,.T.);
#28=ORIENTED_EDGE('',*,*,#43,.F.);
#29=ORIENTED_EDGE('',*,*,#43,.T.);
#30=ORIENTED_EDGE('',*,*,#41,.F.);
#31=ORIENTED_EDGE('',*,*,#44,.F.);
#32=ORIENTED_EDGE('',*,*,#42,.F.);
#33=ORIENTED_EDGE('',*,*,#45,.T.);
#34=ORIENTED_EDGE('',*,*,#44,.T.);
#35=ORIENTED_EDGE('',*,*,#38,.F.);
#36=ORIENTED_EDGE('',*,*,#45,.F.);
#37=EDGE_CURVE('',#46,#46,#55,.T.);
#38=EDGE_CURVE('',#47,#47,#56,.F.);
#39=EDGE_CURVE('',#48,#48,#57,.T.);
#40=EDGE_CURVE('',#49,#49,#58,.T.);
#41=EDGE_CURVE('',#50,#50,#59,.T.);
#42=EDGE_CURVE('',#51,#51,#60,.T.);
#43=EDGE_CURVE('',#52,#52,#61,.T.);
#44=EDGE_CURVE('',#53,#53,#62,.T.);
#45=EDGE_CURVE('',#54,#54,#63,.T.);
#46=VERTEX_POINT('',#183);
#47=VERTEX_POINT('',#185);
#48=VERTEX_POINT('',#188);
#49=VERTEX_POINT('',#191);
#50=VERTEX_POINT('',#193);
#51=VERTEX_POINT('',#197);
#52=VERTEX_POINT('',#199);
#53=VERTEX_POINT('',#203);
#54=VERTEX_POINT('',#206);
#55=CIRCLE('',#125,0.005);
#56=CIRCLE('',#126,0.0025);
#57=CIRCLE('',#128,0.005);
#58=CIRCLE('',#130,0.0075);
#59=CIRCLE('',#131,0.0075);
#60=CIRCLE('',#134,0.004);
#61=CIRCLE('',#135,0.0161824088833465);
#62=CIRCLE('',#138,0.004);
#63=CIRCLE('',#140,0.0025);
#64=EDGE_LOOP('',(#19));
#65=EDGE_LOOP('',(#20));
#66=EDGE_LOOP('',(#21));
#67=EDGE_LOOP('',(#22));
#68=EDGE_LOOP('',(#23));
#69=EDGE_LOOP('',(#24));
#70=EDGE_LOOP('',(#25));
#71=EDGE_LOOP('',(#26));
#72=EDGE_LOOP('',(#27));
#73=EDGE_LOOP('',(#28));
#74=EDGE_LOOP('',(#29));
#75=EDGE_LOOP('',(#30));
#76=EDGE_LOOP('',(#31));
#77=EDGE_LOOP('',(#32));
#78=EDGE_LOOP('',(#33));
#79=EDGE_LOOP('',(#34));
#80=EDGE_LOOP('',(#35));
#81=EDGE_LOOP('',(#36));
#82=FACE_BOUND('',#64,.T.);
#83=FACE_BOUND('',#65,.T.);
#84=FACE_BOUND('',#66,.T.);
#85=FACE_BOUND('',#67,.T.);
#86=FACE_BOUND('',#68,.T.);
#87=FACE_BOUND('',#69,.T.);
#88=FACE_BOUND('',#70,.T.);
#89=FACE_BOUND('',#71,.T.);
#90=FACE_BOUND('',#72,.T.);
#91=FACE_BOUND('',#73,.T.);
#92=FACE_BOUND('',#74,.T.);
#93=FACE_BOUND('',#75,.T.);
#94=FACE_BOUND('',#76,.T.);
#95=FACE_BOUND('',#77,.T.);
#96=FACE_BOUND('',#78,.T.);
#97=FACE_BOUND('',#79,.T.);
#98=FACE_BOUND('',#80,.T.);
#99=FACE_BOUND('',#81,.T.);
#100=CONICAL_SURFACE('',#124,0.005,1.02974425867665);
#101=CONICAL_SURFACE('',#136,0.0075,0.174532925199433);
#102=ADVANCED_FACE('',(#82,#83),#100,.F.);
#103=ADVANCED_FACE('',(#84,#85),#15,.F.);
#104=ADVANCED_FACE('',(#86,#87),#16,.T.);
#105=ADVANCED_FACE('',(#88,#89),#13,.T.);
#106=ADVANCED_FACE('',(#90,#91),#12,.T.);
#107=ADVANCED_FACE('',(#92,#93),#101,.T.);
#108=ADVANCED_FACE('',(#94,#95),#17,.F.);
#109=ADVANCED_FACE('',(#96,#97),#14,.T.);
#110=ADVANCED_FACE('',(#98,#99),#18,.F.);
#111=CLOSED_SHELL('',(#102,#103,#104,#105,#106,#107,#108,#109,#110));
#112=STYLED_ITEM('',(#113),#120);
#113=PRESENTATION_STYLE_ASSIGNMENT((#114));
#114=SURFACE_STYLE_USAGE(.BOTH.,#115);
#115=SURFACE_SIDE_STYLE('',(#116));
#116=SURFACE_STYLE_FILL_AREA(#117);
#117=FILL_AREA_STYLE('',(#118));
#118=FILL_AREA_STYLE_COLOUR('',#119);
#119=COLOUR_RGB('',0.301960784313725,0.301960784313725,0.301960784313725);
#120=MANIFOLD_SOLID_BREP('Part 1',#111);
#121=SHAPE_DEFINITION_REPRESENTATION(#214,#122);
#122=SHAPE_REPRESENTATION('Part 1',(#123),#209);
#123=AXIS2_PLACEMENT_3D('',#180,#142,#143);
#124=AXIS2_PLACEMENT_3D('',#181,#144,#145);
#125=AXIS2_PLACEMENT_3D('',#182,#146,#147);
#126=AXIS2_PLACEMENT_3D('',#184,#148,#149);
#127=AXIS2_PLACEMENT_3D('',#186,#150,#151);
#128=AXIS2_PLACEMENT_3D('',#187,#152,#153);
#129=AXIS2_PLACEMENT_3D('',#189,#154,#155);
#130=AXIS2_PLACEMENT_3D('',#190,#156,#157);
#131=AXIS2_PLACEMENT_3D('',#192,#158,#159);
#132=AXIS2_PLACEMENT_3D('',#194,#160,#161);
#133=AXIS2_PLACEMENT_3D('',#195,#162,#163);
#134=AXIS2_PLACEMENT_3D('',#196,#164,#165);
#135=AXIS2_PLACEMENT_3D('',#198,#166,#167);
#136=AXIS2_PLACEMENT_3D('',#200,#168,#169);
#137=AXIS2_PLACEMENT_3D('',#201,#170,#171);
#138=AXIS2_PLACEMENT_3D('',#202,#172,#173);
#139=AXIS2_PLACEMENT_3D('',#204,#174,#175);
#140=AXIS2_PLACEMENT_3D('',#205,#176,#177);
#141=AXIS2_PLACEMENT_3D('',#207,#178,#179);
#142=DIRECTION('',(0.,0.,1.));
#143=DIRECTION('',(1.,0.,0.));
#144=DIRECTION('',(0.,0.,-1.));
#145=DIRECTION('',(-1.,0.,0.));
#146=DIRECTION('',(0.,0.,1.));
#147=DIRECTION('',(1.,0.,0.));
#148=DIRECTION('',(0.,0.,-1.));
#149=DIRECTION('',(-1.,0.,0.));
#150=DIRECTION('',(0.,0.,1.));
#151=DIRECTION('',(1.,0.,0.));
#152=DIRECTION('',(0.,0.,1.));
#153=DIRECTION('',(1.,0.,0.));
#154=DIRECTION('',(0.,0.,1.));
#155=DIRECTION('',(1.,0.,0.));
#156=DIRECTION('',(0.,0.,-1.));
#157=DIRECTION('',(-1.,0.,0.));
#158=DIRECTION('',(0.,0.,-1.));
#159=DIRECTION('',(-1.,0.,0.));
#160=DIRECTION('',(0.,0.,-1.));
#161=DIRECTION('',(-1.,0.,0.));
#162=DIRECTION('',(0.,0.,-1.));
#163=DIRECTION('',(1.,0.,0.));
#164=DIRECTION('',(0.,0.,-1.));
#165=DIRECTION('',(-1.,0.,0.));
#166=DIRECTION('',(0.,0.,-1.));
#167=DIRECTION('',(-1.,0.,0.));
#168=DIRECTION('',(0.,0.,1.));
#169=DIRECTION('',(1.,0.,0.));
#170=DIRECTION('',(0.,0.,1.));
#171=DIRECTION('',(1.,0.,0.));
#172=DIRECTION('',(0.,0.,1.));
#173=DIRECTION('',(1.,0.,0.));
#174=DIRECTION('',(0.,0.,1.));
#175=DIRECTION('',(1.,0.,0.));
#176=DIRECTION('',(0.,0.,-1.));
#177=DIRECTION('',(-1.,0.,0.));
#178=DIRECTION('',(0.,0.,-1.));
#179=DIRECTION('',(-1.,0.,0.));
#180=CARTESIAN_POINT('',(0.,0.,0.));
#181=CARTESIAN_POINT('',(0.,0.,0.00233394801616668));
#182=CARTESIAN_POINT('',(0.,0.,0.00233394801616668));
#183=CARTESIAN_POINT('',(0.005,0.,0.00233394801616668));
#184=CARTESIAN_POINT('',(0.,0.,0.00383609956373558));
#185=CARTESIAN_POINT('',(-0.0025,0.,0.00383609956373558));
#186=CARTESIAN_POINT('',(0.,0.,-0.0226660519838333));
#187=CARTESIAN_POINT('',(0.,0.,-0.0476660519838333));
#188=CARTESIAN_POINT('',(0.005,0.,-0.0476660519838333));
#189=CARTESIAN_POINT('',(0.,0.,-0.0476660519838333));
#190=CARTESIAN_POINT('',(0.,0.,-0.0476660519838333));
#191=CARTESIAN_POINT('',(-0.0075,0.,-0.0476660519838333));
#192=CARTESIAN_POINT('',(0.,0.,-0.0226660519838334));
#193=CARTESIAN_POINT('',(-0.0075,0.,-0.0226660519838334));
#194=CARTESIAN_POINT('',(-0.00375,0.,-0.0476660519838333));
#195=CARTESIAN_POINT('',(4.954433810371E-19,0.,0.0265743356667771));
#196=CARTESIAN_POINT('',(0.,2.4492935982947E-19,0.0422545894041314));
#197=CARTESIAN_POINT('',(-0.004,2.4492935982947E-19,0.0422545894041314));
#198=CARTESIAN_POINT('',(0.,0.,0.0265743356667771));
#199=CARTESIAN_POINT('',(-0.0161824088833465,0.,0.0265743356667771));
#200=CARTESIAN_POINT('',(0.,0.,-0.0226660519838334));
#201=CARTESIAN_POINT('',(0.,2.4492935982947E-19,0.005));
#202=CARTESIAN_POINT('',(0.,2.4492935982947E-19,0.005));
#203=CARTESIAN_POINT('',(0.004,2.4492935982947E-19,0.005));
#204=CARTESIAN_POINT('',(0.,0.,0.005));
#205=CARTESIAN_POINT('',(0.,0.,0.005));
#206=CARTESIAN_POINT('',(-0.0025,0.,0.005));
#207=CARTESIAN_POINT('',(0.,0.,0.005));
#208=MECHANICAL_DESIGN_GEOMETRIC_PRESENTATION_REPRESENTATION('',(#112),
#209);
#209=(
GEOMETRIC_REPRESENTATION_CONTEXT(3)
GLOBAL_UNCERTAINTY_ASSIGNED_CONTEXT((#210))
GLOBAL_UNIT_ASSIGNED_CONTEXT((#213,#212,#211))
REPRESENTATION_CONTEXT('Part 1','TOP_LEVEL_ASSEMBLY_PART')
);
#210=UNCERTAINTY_MEASURE_WITH_UNIT(LENGTH_MEASURE(1.E-8),#213,
'DISTANCE_ACCURACY_VALUE','Maximum Tolerance applied to model');
#211=(
NAMED_UNIT(*)
SI_UNIT($,.STERADIAN.)
SOLID_ANGLE_UNIT()
);
#212=(
NAMED_UNIT(*)
PLANE_ANGLE_UNIT()
SI_UNIT($,.RADIAN.)
);
#213=(
LENGTH_UNIT()
NAMED_UNIT(*)
SI_UNIT($,.METRE.)
);
#214=PRODUCT_DEFINITION_SHAPE('','',#215);
#215=PRODUCT_DEFINITION('','',#217,#216);
#216=PRODUCT_DEFINITION_CONTEXT('',#223,'design');
#217=PRODUCT_DEFINITION_FORMATION_WITH_SPECIFIED_SOURCE('','',#219,
 .NOT_KNOWN.);
#218=PRODUCT_RELATED_PRODUCT_CATEGORY('','',(#219));
#219=PRODUCT('Part 1','Part 1','Part 1',(#221));
#220=PRODUCT_CATEGORY('','');
#221=PRODUCT_CONTEXT('',#223,'mechanical');
#222=APPLICATION_PROTOCOL_DEFINITION('international standard',
'ap242_managed_model_based_3d_engineering',2020,#223);
#223=APPLICATION_CONTEXT('managed model based 3d engineering');
ENDSEC;
END-ISO-10303-21;
