ISO-10303-21;
HEADER;
/* Generated by software containing ST-Developer
 * from STEP Tools, Inc. (www.steptools.com) 
 */
/* OPTION: using custom renumber hook */

FILE_DESCRIPTION(
/* description */ ('STEP AP242 Edition 2',
'CAx-IF Rec.Pracs.---Representation and Presentation of Product Manufa
cturing Information (PMI)---4.0---2014-10-13',
'CAx-IF Rec.Pracs.---3D Tessellated Geometry---0.4---2014-09-14','2;1',
'CAx-IF Rec.Pracs.---User Defined Attributes---1.5---2016-08-15'),
/* implementation_level */ '2;1');

FILE_NAME(
/* name */ 'roller-holder',
/* time_stamp */ '2026-06-29T12:11:06Z',
/* author */ (''),
/* organization */ (''),
/* preprocessor_version */ 'ST-DEVELOPER v20',
/* originating_system */ 'ONSHAPE BY PTC INC, 1.217',
/* authorisation */ '  ');

FILE_SCHEMA (('AP242_MANAGED_MODEL_BASED_3D_ENGINEERING_MIM_LF { 1 0 10303 442 3 1 4 }'));
ENDSEC;

DATA;
#10=SHAPE_REPRESENTATION_RELATIONSHIP('','',#439,#11);
#11=ADVANCED_BREP_SHAPE_REPRESENTATION('',(#437),#709);
#12=LINE('',#609,#60);
#13=LINE('',#612,#61);
#14=LINE('',#614,#62);
#15=LINE('',#616,#63);
#16=LINE('',#618,#64);
#17=LINE('',#620,#65);
#18=LINE('',#621,#66);
#19=LINE('',#624,#67);
#20=LINE('',#626,#68);
#21=LINE('',#628,#69);
#22=LINE('',#630,#70);
#23=LINE('',#632,#71);
#24=LINE('',#634,#72);
#25=LINE('',#636,#73);
#26=LINE('',#639,#74);
#27=LINE('',#641,#75);
#28=LINE('',#643,#76);
#29=LINE('',#645,#77);
#30=LINE('',#647,#78);
#31=LINE('',#648,#79);
#32=LINE('',#650,#80);
#33=LINE('',#652,#81);
#34=LINE('',#654,#82);
#35=LINE('',#655,#83);
#36=LINE('',#659,#84);
#37=LINE('',#661,#85);
#38=LINE('',#663,#86);
#39=LINE('',#665,#87);
#40=LINE('',#667,#88);
#41=LINE('',#669,#89);
#42=LINE('',#671,#90);
#43=LINE('',#673,#91);
#44=LINE('',#675,#92);
#45=LINE('',#677,#93);
#46=LINE('',#679,#94);
#47=LINE('',#681,#95);
#48=LINE('',#684,#96);
#49=LINE('',#686,#97);
#50=LINE('',#688,#98);
#51=LINE('',#690,#99);
#52=LINE('',#692,#100);
#53=LINE('',#694,#101);
#54=LINE('',#696,#102);
#55=LINE('',#698,#103);
#56=LINE('',#700,#104);
#57=LINE('',#702,#105);
#58=LINE('',#704,#106);
#59=LINE('',#706,#107);
#60=VECTOR('',#486,1.);
#61=VECTOR('',#487,1.);
#62=VECTOR('',#488,1.);
#63=VECTOR('',#489,1.);
#64=VECTOR('',#490,1.);
#65=VECTOR('',#491,1.);
#66=VECTOR('',#492,1.);
#67=VECTOR('',#493,1.);
#68=VECTOR('',#494,1.);
#69=VECTOR('',#495,1.);
#70=VECTOR('',#498,1.);
#71=VECTOR('',#499,1.);
#72=VECTOR('',#500,1.);
#73=VECTOR('',#503,1.);
#74=VECTOR('',#504,1.);
#75=VECTOR('',#505,1.);
#76=VECTOR('',#506,1.);
#77=VECTOR('',#507,1.);
#78=VECTOR('',#508,1.);
#79=VECTOR('',#509,1.);
#80=VECTOR('',#510,1.);
#81=VECTOR('',#511,1.);
#82=VECTOR('',#514,1.);
#83=VECTOR('',#515,1.);
#84=VECTOR('',#522,1.);
#85=VECTOR('',#523,1.);
#86=VECTOR('',#524,1.);
#87=VECTOR('',#527,1.);
#88=VECTOR('',#528,1.);
#89=VECTOR('',#531,1.);
#90=VECTOR('',#532,1.);
#91=VECTOR('',#535,1.);
#92=VECTOR('',#536,1.);
#93=VECTOR('',#539,1.);
#94=VECTOR('',#540,1.);
#95=VECTOR('',#543,1.);
#96=VECTOR('',#548,1.);
#97=VECTOR('',#549,1.);
#98=VECTOR('',#550,1.);
#99=VECTOR('',#553,1.);
#100=VECTOR('',#554,1.);
#101=VECTOR('',#557,1.);
#102=VECTOR('',#558,1.);
#103=VECTOR('',#561,1.);
#104=VECTOR('',#562,1.);
#105=VECTOR('',#565,1.);
#106=VECTOR('',#566,1.);
#107=VECTOR('',#569,1.);
#108=PLANE('',#448);
#109=PLANE('',#449);
#110=PLANE('',#450);
#111=PLANE('',#451);
#112=PLANE('',#452);
#113=PLANE('',#453);
#114=PLANE('',#454);
#115=PLANE('',#455);
#116=PLANE('',#456);
#117=PLANE('',#457);
#118=PLANE('',#458);
#119=PLANE('',#459);
#120=PLANE('',#460);
#121=PLANE('',#461);
#122=PLANE('',#462);
#123=PLANE('',#463);
#124=PLANE('',#464);
#125=PLANE('',#465);
#126=PLANE('',#466);
#127=PLANE('',#467);
#128=CIRCLE('',#442,0.0021);
#129=CIRCLE('',#444,0.0021);
#130=CIRCLE('',#446,0.0055);
#131=CIRCLE('',#447,0.0055);
#132=ORIENTED_EDGE('',*,*,#240,.F.);
#133=ORIENTED_EDGE('',*,*,#241,.F.);
#134=ORIENTED_EDGE('',*,*,#242,.F.);
#135=ORIENTED_EDGE('',*,*,#243,.F.);
#136=ORIENTED_EDGE('',*,*,#240,.T.);
#137=ORIENTED_EDGE('',*,*,#244,.F.);
#138=ORIENTED_EDGE('',*,*,#245,.T.);
#139=ORIENTED_EDGE('',*,*,#242,.T.);
#140=ORIENTED_EDGE('',*,*,#246,.F.);
#141=ORIENTED_EDGE('',*,*,#247,.F.);
#142=ORIENTED_EDGE('',*,*,#248,.F.);
#143=ORIENTED_EDGE('',*,*,#249,.F.);
#144=ORIENTED_EDGE('',*,*,#250,.F.);
#145=ORIENTED_EDGE('',*,*,#251,.F.);
#146=ORIENTED_EDGE('',*,*,#252,.F.);
#147=ORIENTED_EDGE('',*,*,#253,.F.);
#148=ORIENTED_EDGE('',*,*,#254,.T.);
#149=ORIENTED_EDGE('',*,*,#255,.T.);
#150=ORIENTED_EDGE('',*,*,#256,.T.);
#151=ORIENTED_EDGE('',*,*,#257,.F.);
#152=ORIENTED_EDGE('',*,*,#258,.F.);
#153=ORIENTED_EDGE('',*,*,#253,.T.);
#154=ORIENTED_EDGE('',*,*,#259,.F.);
#155=ORIENTED_EDGE('',*,*,#260,.F.);
#156=ORIENTED_EDGE('',*,*,#261,.F.);
#157=ORIENTED_EDGE('',*,*,#262,.F.);
#158=ORIENTED_EDGE('',*,*,#263,.F.);
#159=ORIENTED_EDGE('',*,*,#264,.F.);
#160=ORIENTED_EDGE('',*,*,#265,.T.);
#161=ORIENTED_EDGE('',*,*,#266,.F.);
#162=ORIENTED_EDGE('',*,*,#267,.F.);
#163=ORIENTED_EDGE('',*,*,#257,.T.);
#164=ORIENTED_EDGE('',*,*,#268,.F.);
#165=ORIENTED_EDGE('',*,*,#255,.F.);
#166=ORIENTED_EDGE('',*,*,#269,.T.);
#167=ORIENTED_EDGE('',*,*,#266,.T.);
#168=ORIENTED_EDGE('',*,*,#244,.T.);
#169=ORIENTED_EDGE('',*,*,#254,.F.);
#170=ORIENTED_EDGE('',*,*,#258,.T.);
#171=ORIENTED_EDGE('',*,*,#267,.T.);
#172=ORIENTED_EDGE('',*,*,#269,.F.);
#173=ORIENTED_EDGE('',*,*,#245,.F.);
#174=ORIENTED_EDGE('',*,*,#252,.T.);
#175=ORIENTED_EDGE('',*,*,#268,.T.);
#176=ORIENTED_EDGE('',*,*,#265,.F.);
#177=ORIENTED_EDGE('',*,*,#256,.F.);
#178=ORIENTED_EDGE('',*,*,#260,.T.);
#179=ORIENTED_EDGE('',*,*,#270,.F.);
#180=ORIENTED_EDGE('',*,*,#271,.F.);
#181=ORIENTED_EDGE('',*,*,#272,.T.);
#182=ORIENTED_EDGE('',*,*,#259,.T.);
#183=ORIENTED_EDGE('',*,*,#273,.F.);
#184=ORIENTED_EDGE('',*,*,#274,.F.);
#185=ORIENTED_EDGE('',*,*,#270,.T.);
#186=ORIENTED_EDGE('',*,*,#264,.T.);
#187=ORIENTED_EDGE('',*,*,#275,.F.);
#188=ORIENTED_EDGE('',*,*,#276,.F.);
#189=ORIENTED_EDGE('',*,*,#273,.T.);
#190=ORIENTED_EDGE('',*,*,#263,.T.);
#191=ORIENTED_EDGE('',*,*,#277,.F.);
#192=ORIENTED_EDGE('',*,*,#278,.F.);
#193=ORIENTED_EDGE('',*,*,#275,.T.);
#194=ORIENTED_EDGE('',*,*,#262,.T.);
#195=ORIENTED_EDGE('',*,*,#279,.F.);
#196=ORIENTED_EDGE('',*,*,#280,.F.);
#197=ORIENTED_EDGE('',*,*,#277,.T.);
#198=ORIENTED_EDGE('',*,*,#261,.T.);
#199=ORIENTED_EDGE('',*,*,#272,.F.);
#200=ORIENTED_EDGE('',*,*,#281,.F.);
#201=ORIENTED_EDGE('',*,*,#279,.T.);
#202=ORIENTED_EDGE('',*,*,#243,.T.);
#203=ORIENTED_EDGE('',*,*,#271,.T.);
#204=ORIENTED_EDGE('',*,*,#274,.T.);
#205=ORIENTED_EDGE('',*,*,#276,.T.);
#206=ORIENTED_EDGE('',*,*,#278,.T.);
#207=ORIENTED_EDGE('',*,*,#280,.T.);
#208=ORIENTED_EDGE('',*,*,#281,.T.);
#209=ORIENTED_EDGE('',*,*,#246,.T.);
#210=ORIENTED_EDGE('',*,*,#282,.F.);
#211=ORIENTED_EDGE('',*,*,#283,.F.);
#212=ORIENTED_EDGE('',*,*,#284,.T.);
#213=ORIENTED_EDGE('',*,*,#251,.T.);
#214=ORIENTED_EDGE('',*,*,#285,.F.);
#215=ORIENTED_EDGE('',*,*,#286,.F.);
#216=ORIENTED_EDGE('',*,*,#282,.T.);
#217=ORIENTED_EDGE('',*,*,#250,.T.);
#218=ORIENTED_EDGE('',*,*,#287,.F.);
#219=ORIENTED_EDGE('',*,*,#288,.F.);
#220=ORIENTED_EDGE('',*,*,#285,.T.);
#221=ORIENTED_EDGE('',*,*,#249,.T.);
#222=ORIENTED_EDGE('',*,*,#289,.F.);
#223=ORIENTED_EDGE('',*,*,#290,.F.);
#224=ORIENTED_EDGE('',*,*,#287,.T.);
#225=ORIENTED_EDGE('',*,*,#248,.T.);
#226=ORIENTED_EDGE('',*,*,#291,.F.);
#227=ORIENTED_EDGE('',*,*,#292,.F.);
#228=ORIENTED_EDGE('',*,*,#289,.T.);
#229=ORIENTED_EDGE('',*,*,#247,.T.);
#230=ORIENTED_EDGE('',*,*,#284,.F.);
#231=ORIENTED_EDGE('',*,*,#293,.F.);
#232=ORIENTED_EDGE('',*,*,#291,.T.);
#233=ORIENTED_EDGE('',*,*,#241,.T.);
#234=ORIENTED_EDGE('',*,*,#283,.T.);
#235=ORIENTED_EDGE('',*,*,#286,.T.);
#236=ORIENTED_EDGE('',*,*,#288,.T.);
#237=ORIENTED_EDGE('',*,*,#290,.T.);
#238=ORIENTED_EDGE('',*,*,#292,.T.);
#239=ORIENTED_EDGE('',*,*,#293,.T.);
#240=EDGE_CURVE('',#294,#294,#332,.T.);
#241=EDGE_CURVE('',#295,#295,#128,.F.);
#242=EDGE_CURVE('',#296,#296,#333,.T.);
#243=EDGE_CURVE('',#297,#297,#129,.T.);
#244=EDGE_CURVE('',#298,#298,#130,.T.);
#245=EDGE_CURVE('',#299,#299,#131,.F.);
#246=EDGE_CURVE('',#300,#301,#12,.T.);
#247=EDGE_CURVE('',#302,#300,#13,.T.);
#248=EDGE_CURVE('',#303,#302,#14,.T.);
#249=EDGE_CURVE('',#304,#303,#15,.T.);
#250=EDGE_CURVE('',#305,#304,#16,.T.);
#251=EDGE_CURVE('',#301,#305,#17,.T.);
#252=EDGE_CURVE('',#306,#307,#18,.T.);
#253=EDGE_CURVE('',#308,#306,#19,.T.);
#254=EDGE_CURVE('',#308,#309,#20,.T.);
#255=EDGE_CURVE('',#309,#307,#21,.T.);
#256=EDGE_CURVE('',#306,#310,#22,.T.);
#257=EDGE_CURVE('',#311,#310,#23,.T.);
#258=EDGE_CURVE('',#308,#311,#24,.T.);
#259=EDGE_CURVE('',#312,#313,#25,.T.);
#260=EDGE_CURVE('',#314,#312,#26,.T.);
#261=EDGE_CURVE('',#315,#314,#27,.T.);
#262=EDGE_CURVE('',#316,#315,#28,.T.);
#263=EDGE_CURVE('',#317,#316,#29,.T.);
#264=EDGE_CURVE('',#313,#317,#30,.T.);
#265=EDGE_CURVE('',#310,#318,#31,.T.);
#266=EDGE_CURVE('',#319,#318,#32,.T.);
#267=EDGE_CURVE('',#311,#319,#33,.T.);
#268=EDGE_CURVE('',#307,#318,#34,.T.);
#269=EDGE_CURVE('',#309,#319,#35,.T.);
#270=EDGE_CURVE('',#320,#312,#36,.T.);
#271=EDGE_CURVE('',#321,#320,#37,.T.);
#272=EDGE_CURVE('',#321,#314,#38,.T.);
#273=EDGE_CURVE('',#322,#313,#39,.T.);
#274=EDGE_CURVE('',#320,#322,#40,.T.);
#275=EDGE_CURVE('',#323,#317,#41,.T.);
#276=EDGE_CURVE('',#322,#323,#42,.T.);
#277=EDGE_CURVE('',#324,#316,#43,.T.);
#278=EDGE_CURVE('',#323,#324,#44,.T.);
#279=EDGE_CURVE('',#325,#315,#45,.T.);
#280=EDGE_CURVE('',#324,#325,#46,.T.);
#281=EDGE_CURVE('',#325,#321,#47,.T.);
#282=EDGE_CURVE('',#326,#301,#48,.T.);
#283=EDGE_CURVE('',#327,#326,#49,.T.);
#284=EDGE_CURVE('',#327,#300,#50,.T.);
#285=EDGE_CURVE('',#328,#305,#51,.T.);
#286=EDGE_CURVE('',#326,#328,#52,.T.);
#287=EDGE_CURVE('',#329,#304,#53,.T.);
#288=EDGE_CURVE('',#328,#329,#54,.T.);
#289=EDGE_CURVE('',#330,#303,#55,.T.);
#290=EDGE_CURVE('',#329,#330,#56,.T.);
#291=EDGE_CURVE('',#331,#302,#57,.T.);
#292=EDGE_CURVE('',#330,#331,#58,.T.);
#293=EDGE_CURVE('',#331,#327,#59,.T.);
#294=VERTEX_POINT('',#585);
#295=VERTEX_POINT('',#587);
#296=VERTEX_POINT('',#600);
#297=VERTEX_POINT('',#602);
#298=VERTEX_POINT('',#605);
#299=VERTEX_POINT('',#607);
#300=VERTEX_POINT('',#610);
#301=VERTEX_POINT('',#611);
#302=VERTEX_POINT('',#613);
#303=VERTEX_POINT('',#615);
#304=VERTEX_POINT('',#617);
#305=VERTEX_POINT('',#619);
#306=VERTEX_POINT('',#622);
#307=VERTEX_POINT('',#623);
#308=VERTEX_POINT('',#625);
#309=VERTEX_POINT('',#627);
#310=VERTEX_POINT('',#631);
#311=VERTEX_POINT('',#633);
#312=VERTEX_POINT('',#637);
#313=VERTEX_POINT('',#638);
#314=VERTEX_POINT('',#640);
#315=VERTEX_POINT('',#642);
#316=VERTEX_POINT('',#644);
#317=VERTEX_POINT('',#646);
#318=VERTEX_POINT('',#649);
#319=VERTEX_POINT('',#651);
#320=VERTEX_POINT('',#660);
#321=VERTEX_POINT('',#662);
#322=VERTEX_POINT('',#666);
#323=VERTEX_POINT('',#670);
#324=VERTEX_POINT('',#674);
#325=VERTEX_POINT('',#678);
#326=VERTEX_POINT('',#685);
#327=VERTEX_POINT('',#687);
#328=VERTEX_POINT('',#691);
#329=VERTEX_POINT('',#695);
#330=VERTEX_POINT('',#699);
#331=VERTEX_POINT('',#703);
#332=B_SPLINE_CURVE_WITH_KNOTS('',3,(#574,#575,#576,#577,#578,#579,#580,
#581,#582,#583,#584),.UNSPECIFIED.,.T.,.F.,(1,1,1,1,1,1,1,1,1,1,1,1,1,1,
1),(-0.00497134949731541,-0.00331423299821027,-0.00165711649910513,0.,0.00165711649910514,
0.00331423299821027,0.00497134949731541,0.00662846599642054,0.00828558249552568,
0.00994269899463081,0.0115998154937359,0.0132569319928411,0.0149140484919462,
0.0165711649910514,0.0182282814901565),.UNSPECIFIED.);
#333=B_SPLINE_CURVE_WITH_KNOTS('',3,(#589,#590,#591,#592,#593,#594,#595,
#596,#597,#598,#599),.UNSPECIFIED.,.T.,.F.,(1,1,1,1,1,1,1,1,1,1,1,1,1,1,
1),(-0.00497134949731542,-0.00331423299821028,-0.00165711649910514,0.,0.00165711649910514,
0.00331423299821028,0.00497134949731542,0.00662846599642056,0.0082855824955257,
0.00994269899463084,0.011599815493736,0.0132569319928411,0.0149140484919463,
0.0165711649910514,0.0182282814901565),.UNSPECIFIED.);
#334=EDGE_LOOP('',(#132));
#335=EDGE_LOOP('',(#133));
#336=EDGE_LOOP('',(#134));
#337=EDGE_LOOP('',(#135));
#338=EDGE_LOOP('',(#136));
#339=EDGE_LOOP('',(#137));
#340=EDGE_LOOP('',(#138));
#341=EDGE_LOOP('',(#139));
#342=EDGE_LOOP('',(#140,#141,#142,#143,#144,#145));
#343=EDGE_LOOP('',(#146,#147,#148,#149));
#344=EDGE_LOOP('',(#150,#151,#152,#153));
#345=EDGE_LOOP('',(#154,#155,#156,#157,#158,#159));
#346=EDGE_LOOP('',(#160,#161,#162,#163));
#347=EDGE_LOOP('',(#164,#165,#166,#167));
#348=EDGE_LOOP('',(#168));
#349=EDGE_LOOP('',(#169,#170,#171,#172));
#350=EDGE_LOOP('',(#173));
#351=EDGE_LOOP('',(#174,#175,#176,#177));
#352=EDGE_LOOP('',(#178,#179,#180,#181));
#353=EDGE_LOOP('',(#182,#183,#184,#185));
#354=EDGE_LOOP('',(#186,#187,#188,#189));
#355=EDGE_LOOP('',(#190,#191,#192,#193));
#356=EDGE_LOOP('',(#194,#195,#196,#197));
#357=EDGE_LOOP('',(#198,#199,#200,#201));
#358=EDGE_LOOP('',(#202));
#359=EDGE_LOOP('',(#203,#204,#205,#206,#207,#208));
#360=EDGE_LOOP('',(#209,#210,#211,#212));
#361=EDGE_LOOP('',(#213,#214,#215,#216));
#362=EDGE_LOOP('',(#217,#218,#219,#220));
#363=EDGE_LOOP('',(#221,#222,#223,#224));
#364=EDGE_LOOP('',(#225,#226,#227,#228));
#365=EDGE_LOOP('',(#229,#230,#231,#232));
#366=EDGE_LOOP('',(#233));
#367=EDGE_LOOP('',(#234,#235,#236,#237,#238,#239));
#368=FACE_BOUND('',#334,.T.);
#369=FACE_BOUND('',#335,.T.);
#370=FACE_BOUND('',#336,.T.);
#371=FACE_BOUND('',#337,.T.);
#372=FACE_BOUND('',#338,.T.);
#373=FACE_BOUND('',#339,.T.);
#374=FACE_BOUND('',#340,.T.);
#375=FACE_BOUND('',#341,.T.);
#376=FACE_BOUND('',#342,.T.);
#377=FACE_BOUND('',#343,.T.);
#378=FACE_BOUND('',#344,.T.);
#379=FACE_BOUND('',#345,.T.);
#380=FACE_BOUND('',#346,.T.);
#381=FACE_BOUND('',#347,.T.);
#382=FACE_BOUND('',#348,.T.);
#383=FACE_BOUND('',#349,.T.);
#384=FACE_BOUND('',#350,.T.);
#385=FACE_BOUND('',#351,.T.);
#386=FACE_BOUND('',#352,.T.);
#387=FACE_BOUND('',#353,.T.);
#388=FACE_BOUND('',#354,.T.);
#389=FACE_BOUND('',#355,.T.);
#390=FACE_BOUND('',#356,.T.);
#391=FACE_BOUND('',#357,.T.);
#392=FACE_BOUND('',#358,.T.);
#393=FACE_BOUND('',#359,.T.);
#394=FACE_BOUND('',#360,.T.);
#395=FACE_BOUND('',#361,.T.);
#396=FACE_BOUND('',#362,.T.);
#397=FACE_BOUND('',#363,.T.);
#398=FACE_BOUND('',#364,.T.);
#399=FACE_BOUND('',#365,.T.);
#400=FACE_BOUND('',#366,.T.);
#401=FACE_BOUND('',#367,.T.);
#402=CYLINDRICAL_SURFACE('',#441,0.0021);
#403=CYLINDRICAL_SURFACE('',#443,0.0021);
#404=CYLINDRICAL_SURFACE('',#445,0.0055);
#405=ADVANCED_FACE('',(#368,#369),#402,.F.);
#406=ADVANCED_FACE('',(#370,#371),#403,.F.);
#407=ADVANCED_FACE('',(#372,#373,#374,#375),#404,.F.);
#408=ADVANCED_FACE('',(#376,#377),#108,.T.);
#409=ADVANCED_FACE('',(#378),#109,.F.);
#410=ADVANCED_FACE('',(#379,#380),#110,.F.);
#411=ADVANCED_FACE('',(#381),#111,.T.);
#412=ADVANCED_FACE('',(#382,#383),#112,.T.);
#413=ADVANCED_FACE('',(#384,#385),#113,.F.);
#414=ADVANCED_FACE('',(#386),#114,.F.);
#415=ADVANCED_FACE('',(#387),#115,.F.);
#416=ADVANCED_FACE('',(#388),#116,.F.);
#417=ADVANCED_FACE('',(#389),#117,.F.);
#418=ADVANCED_FACE('',(#390),#118,.F.);
#419=ADVANCED_FACE('',(#391),#119,.F.);
#420=ADVANCED_FACE('',(#392,#393),#120,.T.);
#421=ADVANCED_FACE('',(#394),#121,.F.);
#422=ADVANCED_FACE('',(#395),#122,.F.);
#423=ADVANCED_FACE('',(#396),#123,.F.);
#424=ADVANCED_FACE('',(#397),#124,.F.);
#425=ADVANCED_FACE('',(#398),#125,.F.);
#426=ADVANCED_FACE('',(#399),#126,.F.);
#427=ADVANCED_FACE('',(#400,#401),#127,.T.);
#428=CLOSED_SHELL('',(#405,#406,#407,#408,#409,#410,#411,#412,#413,#414,
#415,#416,#417,#418,#419,#420,#421,#422,#423,#424,#425,#426,#427));
#429=STYLED_ITEM('',(#430),#437);
#430=PRESENTATION_STYLE_ASSIGNMENT((#431));
#431=SURFACE_STYLE_USAGE(.BOTH.,#432);
#432=SURFACE_SIDE_STYLE('',(#433));
#433=SURFACE_STYLE_FILL_AREA(#434);
#434=FILL_AREA_STYLE('',(#435));
#435=FILL_AREA_STYLE_COLOUR('',#436);
#436=COLOUR_RGB('',0.301960784313725,0.301960784313725,0.301960784313725);
#437=MANIFOLD_SOLID_BREP('Part 1',#428);
#438=SHAPE_DEFINITION_REPRESENTATION(#714,#439);
#439=SHAPE_REPRESENTATION('Part 1',(#440),#709);
#440=AXIS2_PLACEMENT_3D('',#572,#468,#469);
#441=AXIS2_PLACEMENT_3D('',#573,#470,#471);
#442=AXIS2_PLACEMENT_3D('',#586,#472,#473);
#443=AXIS2_PLACEMENT_3D('',#588,#474,#475);
#444=AXIS2_PLACEMENT_3D('',#601,#476,#477);
#445=AXIS2_PLACEMENT_3D('',#603,#478,#479);
#446=AXIS2_PLACEMENT_3D('',#604,#480,#481);
#447=AXIS2_PLACEMENT_3D('',#606,#482,#483);
#448=AXIS2_PLACEMENT_3D('',#608,#484,#485);
#449=AXIS2_PLACEMENT_3D('',#629,#496,#497);
#450=AXIS2_PLACEMENT_3D('',#635,#501,#502);
#451=AXIS2_PLACEMENT_3D('',#653,#512,#513);
#452=AXIS2_PLACEMENT_3D('',#656,#516,#517);
#453=AXIS2_PLACEMENT_3D('',#657,#518,#519);
#454=AXIS2_PLACEMENT_3D('',#658,#520,#521);
#455=AXIS2_PLACEMENT_3D('',#664,#525,#526);
#456=AXIS2_PLACEMENT_3D('',#668,#529,#530);
#457=AXIS2_PLACEMENT_3D('',#672,#533,#534);
#458=AXIS2_PLACEMENT_3D('',#676,#537,#538);
#459=AXIS2_PLACEMENT_3D('',#680,#541,#542);
#460=AXIS2_PLACEMENT_3D('',#682,#544,#545);
#461=AXIS2_PLACEMENT_3D('',#683,#546,#547);
#462=AXIS2_PLACEMENT_3D('',#689,#551,#552);
#463=AXIS2_PLACEMENT_3D('',#693,#555,#556);
#464=AXIS2_PLACEMENT_3D('',#697,#559,#560);
#465=AXIS2_PLACEMENT_3D('',#701,#563,#564);
#466=AXIS2_PLACEMENT_3D('',#705,#567,#568);
#467=AXIS2_PLACEMENT_3D('',#707,#570,#571);
#468=DIRECTION('',(0.,0.,1.));
#469=DIRECTION('',(1.,0.,0.));
#470=DIRECTION('',(0.,1.,0.));
#471=DIRECTION('',(0.,0.,1.));
#472=DIRECTION('',(0.,1.,0.));
#473=DIRECTION('',(0.,0.,1.));
#474=DIRECTION('',(0.,1.,0.));
#475=DIRECTION('',(0.,0.,1.));
#476=DIRECTION('',(0.,1.,0.));
#477=DIRECTION('',(0.,0.,1.));
#478=DIRECTION('',(0.,0.,-1.));
#479=DIRECTION('',(-1.,0.,0.));
#480=DIRECTION('',(0.,0.,-1.));
#481=DIRECTION('',(-1.,0.,0.));
#482=DIRECTION('',(0.,0.,1.));
#483=DIRECTION('',(1.,0.,0.));
#484=DIRECTION('',(0.,1.,0.));
#485=DIRECTION('',(0.,0.,1.));
#486=DIRECTION('',(-0.866025403784438,0.,0.5));
#487=DIRECTION('',(-0.866025403784439,0.,-0.5));
#488=DIRECTION('',(-7.51157299368579E-16,0.,-1.));
#489=DIRECTION('',(0.866025403784438,0.,-0.5));
#490=DIRECTION('',(0.866025403784439,0.,0.5));
#491=DIRECTION('',(1.12673594905287E-15,0.,1.));
#492=DIRECTION('',(1.,0.,0.));
#493=DIRECTION('',(0.,0.,-1.));
#494=DIRECTION('',(1.,0.,0.));
#495=DIRECTION('',(0.,0.,-1.));
#496=DIRECTION('',(1.,5.96311194867028E-17,0.));
#497=DIRECTION('',(-5.96311194867028E-17,1.,0.));
#498=DIRECTION('',(5.96311194867028E-17,-1.,0.));
#499=DIRECTION('',(0.,0.,-1.));
#500=DIRECTION('',(5.96311194867028E-17,-1.,0.));
#501=DIRECTION('',(0.,1.,0.));
#502=DIRECTION('',(0.,0.,1.));
#503=DIRECTION('',(7.51157299368579E-16,0.,1.));
#504=DIRECTION('',(0.866025403784439,0.,0.5));
#505=DIRECTION('',(0.866025403784438,0.,-0.5));
#506=DIRECTION('',(-7.51157299368579E-16,0.,-1.));
#507=DIRECTION('',(-0.866025403784439,0.,-0.5));
#508=DIRECTION('',(-0.866025403784438,0.,0.5));
#509=DIRECTION('',(1.,0.,0.));
#510=DIRECTION('',(0.,0.,-1.));
#511=DIRECTION('',(1.,0.,0.));
#512=DIRECTION('',(1.,0.,0.));
#513=DIRECTION('',(0.,0.,-1.));
#514=DIRECTION('',(0.,-1.,0.));
#515=DIRECTION('',(0.,-1.,0.));
#516=DIRECTION('',(0.,0.,1.));
#517=DIRECTION('',(1.,0.,0.));
#518=DIRECTION('',(0.,0.,1.));
#519=DIRECTION('',(1.,0.,0.));
#520=DIRECTION('',(0.5,0.,-0.866025403784439));
#521=DIRECTION('',(-0.866025403784439,0.,-0.5));
#522=DIRECTION('',(0.,-1.,0.));
#523=DIRECTION('',(0.866025403784439,0.,0.5));
#524=DIRECTION('',(0.,-1.,0.));
#525=DIRECTION('',(1.,0.,-7.51157299368579E-16));
#526=DIRECTION('',(-7.51157299368579E-16,0.,-1.));
#527=DIRECTION('',(0.,-1.,0.));
#528=DIRECTION('',(7.51157299368579E-16,0.,1.));
#529=DIRECTION('',(0.5,0.,0.866025403784438));
#530=DIRECTION('',(0.866025403784438,0.,-0.5));
#531=DIRECTION('',(0.,-1.,0.));
#532=DIRECTION('',(-0.866025403784438,0.,0.5));
#533=DIRECTION('',(-0.5,0.,0.866025403784439));
#534=DIRECTION('',(0.866025403784439,0.,0.5));
#535=DIRECTION('',(0.,-1.,0.));
#536=DIRECTION('',(-0.866025403784439,0.,-0.5));
#537=DIRECTION('',(-1.,0.,7.51157299368579E-16));
#538=DIRECTION('',(7.51157299368579E-16,0.,1.));
#539=DIRECTION('',(0.,-1.,0.));
#540=DIRECTION('',(-7.51157299368579E-16,0.,-1.));
#541=DIRECTION('',(-0.5,0.,-0.866025403784438));
#542=DIRECTION('',(-0.866025403784438,0.,0.5));
#543=DIRECTION('',(0.866025403784438,0.,-0.5));
#544=DIRECTION('',(0.,-1.,0.));
#545=DIRECTION('',(1.,0.,0.));
#546=DIRECTION('',(-0.5,0.,-0.866025403784438));
#547=DIRECTION('',(-0.866025403784438,0.,0.5));
#548=DIRECTION('',(0.,1.,0.));
#549=DIRECTION('',(-0.866025403784438,0.,0.5));
#550=DIRECTION('',(0.,1.,0.));
#551=DIRECTION('',(-1.,0.,1.12673594905287E-15));
#552=DIRECTION('',(1.12673594905287E-15,0.,1.));
#553=DIRECTION('',(0.,1.,0.));
#554=DIRECTION('',(1.12673594905287E-15,0.,1.));
#555=DIRECTION('',(-0.5,0.,0.866025403784439));
#556=DIRECTION('',(0.866025403784439,0.,0.5));
#557=DIRECTION('',(0.,1.,0.));
#558=DIRECTION('',(0.866025403784439,0.,0.5));
#559=DIRECTION('',(0.5,0.,0.866025403784438));
#560=DIRECTION('',(0.866025403784438,0.,-0.5));
#561=DIRECTION('',(0.,1.,0.));
#562=DIRECTION('',(0.866025403784438,0.,-0.5));
#563=DIRECTION('',(1.,0.,-7.51157299368579E-16));
#564=DIRECTION('',(-7.51157299368579E-16,0.,-1.));
#565=DIRECTION('',(0.,1.,0.));
#566=DIRECTION('',(-7.51157299368579E-16,0.,-1.));
#567=DIRECTION('',(0.5,0.,-0.866025403784439));
#568=DIRECTION('',(-0.866025403784439,0.,-0.5));
#569=DIRECTION('',(-0.866025403784439,0.,-0.5));
#570=DIRECTION('',(0.,1.,0.));
#571=DIRECTION('',(-1.,0.,0.));
#572=CARTESIAN_POINT('',(0.,0.,0.));
#573=CARTESIAN_POINT('',(0.00966328360140324,-0.0220848713070154,0.005));
#574=CARTESIAN_POINT('',(0.00801847800643694,-0.00678484330519678,0.00664603612341583));
#575=CARTESIAN_POINT('',(0.00966276889871675,-0.00648475631741461,0.00732758901203867));
#576=CARTESIAN_POINT('',(0.0113101480071155,-0.00678535926723728,0.0066436078284295));
#577=CARTESIAN_POINT('',(0.0119903491933158,-0.00710976814194461,0.0050030598112579));
#578=CARTESIAN_POINT('',(0.0113081535077175,-0.00678495857026193,0.00335330017389469));
#579=CARTESIAN_POINT('',(0.00966487315991049,-0.00648471181074595,0.00267278360625783));
#580=CARTESIAN_POINT('',(0.00801592717843013,-0.00678542225597098,0.00335556599592305));
#581=CARTESIAN_POINT('',(0.00733632428443919,-0.0071097814801854,0.00500066006992364));
#582=CARTESIAN_POINT('',(0.00801847800643694,-0.00678484330519678,0.00664603612341583));
#583=CARTESIAN_POINT('',(0.00966276889871675,-0.00648475631741461,0.00732758901203867));
#584=CARTESIAN_POINT('',(0.0113101480071155,-0.00678535926723728,0.0066436078284295));
#585=CARTESIAN_POINT('',(0.00966328360140324,-0.00658487130701542,0.0071));
#586=CARTESIAN_POINT('',(0.00966328360140324,-0.00608487130701542,0.005));
#587=CARTESIAN_POINT('',(0.00966328360140324,-0.00608487130701542,0.0071));
#588=CARTESIAN_POINT('',(0.00966328360140324,-0.0220848713070154,0.005));
#589=CARTESIAN_POINT('',(0.0113080891963695,-0.0173848993088341,0.00664603612341584));
#590=CARTESIAN_POINT('',(0.00966379830408973,-0.0176849862966162,0.00732758901203866));
#591=CARTESIAN_POINT('',(0.00801641919569097,-0.0173843833467936,0.0066436078284295));
#592=CARTESIAN_POINT('',(0.00733621800949068,-0.0170599744720862,0.0050030598112579));
#593=CARTESIAN_POINT('',(0.00801841369508897,-0.0173847840437689,0.00335330017389469));
#594=CARTESIAN_POINT('',(0.00966169404289599,-0.0176850308032849,0.00267278360625782));
#595=CARTESIAN_POINT('',(0.0113106400243763,-0.0173843203580599,0.00335556599592305));
#596=CARTESIAN_POINT('',(0.0119902429183673,-0.0170599611338454,0.00500066006992365));
#597=CARTESIAN_POINT('',(0.0113080891963695,-0.0173848993088341,0.00664603612341584));
#598=CARTESIAN_POINT('',(0.00966379830408973,-0.0176849862966162,0.00732758901203866));
#599=CARTESIAN_POINT('',(0.00801641919569097,-0.0173843833467936,0.0066436078284295));
#600=CARTESIAN_POINT('',(0.00966328360140324,-0.0175848713070154,0.0071));
#601=CARTESIAN_POINT('',(0.00966328360140324,-0.0180848713070154,0.005));
#602=CARTESIAN_POINT('',(0.00966328360140324,-0.0180848713070154,0.0071));
#603=CARTESIAN_POINT('',(0.00966328360140324,-0.0120848713070154,0.01));
#604=CARTESIAN_POINT('',(0.00966328360140324,-0.0120848713070154,0.01));
#605=CARTESIAN_POINT('',(0.00416328360140324,-0.0120848713070154,0.01));
#606=CARTESIAN_POINT('',(0.00966328360140324,-0.0120848713070154,0.));
#607=CARTESIAN_POINT('',(0.0151632836014032,-0.0120848713070154,0.));
#608=CARTESIAN_POINT('',(0.00966328360140324,-0.00208487130701542,0.01));
#609=CARTESIAN_POINT('',(0.00766328360140323,-0.00208487130701542,0.00153589838486225));
#610=CARTESIAN_POINT('',(0.00966328360140323,-0.00208487130701542,0.000381197846482994));
#611=CARTESIAN_POINT('',(0.00566328360140323,-0.00208487130701542,0.00269059892324151));
#612=CARTESIAN_POINT('',(0.0116632836014032,-0.00208487130701542,0.00153589838486224));
#613=CARTESIAN_POINT('',(0.0136632836014032,-0.00208487130701542,0.0026905989232415));
#614=CARTESIAN_POINT('',(0.0136632836014032,-0.00208487130701542,0.005));
#615=CARTESIAN_POINT('',(0.0136632836014032,-0.00208487130701542,0.0073094010767585));
#616=CARTESIAN_POINT('',(0.0116632836014032,-0.00208487130701542,0.00846410161513776));
#617=CARTESIAN_POINT('',(0.00966328360140324,-0.00208487130701542,0.00961880215351701));
#618=CARTESIAN_POINT('',(0.00766328360140324,-0.00208487130701542,0.00846410161513776));
#619=CARTESIAN_POINT('',(0.00566328360140324,-0.00208487130701542,0.00730940107675851));
#620=CARTESIAN_POINT('',(0.00566328360140324,-0.00208487130701542,0.005));
#621=CARTESIAN_POINT('',(0.00966328360140324,-0.00208487130701542,0.));
#622=CARTESIAN_POINT('',(-0.000336716398596764,-0.00208487130701542,0.));
#623=CARTESIAN_POINT('',(0.0196632836014033,-0.00208487130701542,0.));
#624=CARTESIAN_POINT('',(-0.000336716398596764,-0.00208487130701542,0.01));
#625=CARTESIAN_POINT('',(-0.000336716398596764,-0.00208487130701542,0.01));
#626=CARTESIAN_POINT('',(0.00966328360140324,-0.00208487130701542,0.01));
#627=CARTESIAN_POINT('',(0.0196632836014033,-0.00208487130701542,0.01));
#628=CARTESIAN_POINT('',(0.0196632836014033,-0.00208487130701542,0.01));
#629=CARTESIAN_POINT('',(-0.000336716398596764,-0.0120848713070154,0.01));
#630=CARTESIAN_POINT('',(-0.000336716398596764,-0.0120848713070154,0.));
#631=CARTESIAN_POINT('',(-0.000336716398596761,-0.0220848713070154,0.));
#632=CARTESIAN_POINT('',(-0.000336716398596761,-0.0220848713070154,0.01));
#633=CARTESIAN_POINT('',(-0.000336716398596761,-0.0220848713070154,0.01));
#634=CARTESIAN_POINT('',(-0.000336716398596764,-0.0120848713070154,0.01));
#635=CARTESIAN_POINT('',(0.00966328360140324,-0.0220848713070154,0.01));
#636=CARTESIAN_POINT('',(0.0136632836014032,-0.0220848713070154,0.005));
#637=CARTESIAN_POINT('',(0.0136632836014032,-0.0220848713070154,0.0026905989232415));
#638=CARTESIAN_POINT('',(0.0136632836014032,-0.0220848713070154,0.0073094010767585));
#639=CARTESIAN_POINT('',(0.0116632836014032,-0.0220848713070154,0.00153589838486225));
#640=CARTESIAN_POINT('',(0.00966328360140323,-0.0220848713070154,0.000381197846482997));
#641=CARTESIAN_POINT('',(0.00766328360140323,-0.0220848713070154,0.00153589838486225));
#642=CARTESIAN_POINT('',(0.00566328360140323,-0.0220848713070154,0.00269059892324151));
#643=CARTESIAN_POINT('',(0.00566328360140323,-0.0220848713070154,0.005));
#644=CARTESIAN_POINT('',(0.00566328360140324,-0.0220848713070154,0.00730940107675851));
#645=CARTESIAN_POINT('',(0.00766328360140324,-0.0220848713070154,0.00846410161513776));
#646=CARTESIAN_POINT('',(0.00966328360140324,-0.0220848713070154,0.00961880215351701));
#647=CARTESIAN_POINT('',(0.0116632836014032,-0.0220848713070154,0.00846410161513776));
#648=CARTESIAN_POINT('',(0.00966328360140324,-0.0220848713070154,0.));
#649=CARTESIAN_POINT('',(0.0196632836014033,-0.0220848713070154,0.));
#650=CARTESIAN_POINT('',(0.0196632836014033,-0.0220848713070154,0.01));
#651=CARTESIAN_POINT('',(0.0196632836014033,-0.0220848713070154,0.01));
#652=CARTESIAN_POINT('',(0.00966328360140324,-0.0220848713070154,0.01));
#653=CARTESIAN_POINT('',(0.0196632836014033,-0.0120848713070154,0.01));
#654=CARTESIAN_POINT('',(0.0196632836014033,-0.0120848713070154,0.));
#655=CARTESIAN_POINT('',(0.0196632836014033,-0.0120848713070154,0.01));
#656=CARTESIAN_POINT('',(0.00966328360140324,-0.0120848713070154,0.01));
#657=CARTESIAN_POINT('',(0.00966328360140324,-0.0120848713070154,0.));
#658=CARTESIAN_POINT('',(0.0116632836014032,-0.0180848713070154,0.00153589838486225));
#659=CARTESIAN_POINT('',(0.0136632836014032,-0.0180848713070154,0.0026905989232415));
#660=CARTESIAN_POINT('',(0.0136632836014032,-0.0180848713070154,0.0026905989232415));
#661=CARTESIAN_POINT('',(0.0116632836014032,-0.0180848713070154,0.00153589838486225));
#662=CARTESIAN_POINT('',(0.00966328360140323,-0.0180848713070154,0.000381197846482997));
#663=CARTESIAN_POINT('',(0.00966328360140323,-0.0180848713070154,0.000381197846482997));
#664=CARTESIAN_POINT('',(0.0136632836014032,-0.0180848713070154,0.005));
#665=CARTESIAN_POINT('',(0.0136632836014032,-0.0180848713070154,0.0073094010767585));
#666=CARTESIAN_POINT('',(0.0136632836014032,-0.0180848713070154,0.0073094010767585));
#667=CARTESIAN_POINT('',(0.0136632836014032,-0.0180848713070154,0.005));
#668=CARTESIAN_POINT('',(0.0116632836014032,-0.0180848713070154,0.00846410161513776));
#669=CARTESIAN_POINT('',(0.00966328360140324,-0.0180848713070154,0.00961880215351701));
#670=CARTESIAN_POINT('',(0.00966328360140324,-0.0180848713070154,0.00961880215351701));
#671=CARTESIAN_POINT('',(0.0116632836014032,-0.0180848713070154,0.00846410161513776));
#672=CARTESIAN_POINT('',(0.00766328360140324,-0.0180848713070154,0.00846410161513776));
#673=CARTESIAN_POINT('',(0.00566328360140324,-0.0180848713070154,0.00730940107675851));
#674=CARTESIAN_POINT('',(0.00566328360140324,-0.0180848713070154,0.00730940107675851));
#675=CARTESIAN_POINT('',(0.00766328360140324,-0.0180848713070154,0.00846410161513776));
#676=CARTESIAN_POINT('',(0.00566328360140323,-0.0180848713070154,0.005));
#677=CARTESIAN_POINT('',(0.00566328360140323,-0.0180848713070154,0.00269059892324151));
#678=CARTESIAN_POINT('',(0.00566328360140323,-0.0180848713070154,0.00269059892324151));
#679=CARTESIAN_POINT('',(0.00566328360140323,-0.0180848713070154,0.005));
#680=CARTESIAN_POINT('',(0.00766328360140323,-0.0180848713070154,0.00153589838486225));
#681=CARTESIAN_POINT('',(0.00766328360140323,-0.0180848713070154,0.00153589838486225));
#682=CARTESIAN_POINT('',(0.00966328360140324,-0.0180848713070154,0.005));
#683=CARTESIAN_POINT('',(0.00766328360140323,-0.00608487130701542,0.00153589838486225));
#684=CARTESIAN_POINT('',(0.00566328360140323,-0.00608487130701542,0.00269059892324151));
#685=CARTESIAN_POINT('',(0.00566328360140323,-0.00608487130701542,0.00269059892324151));
#686=CARTESIAN_POINT('',(0.00766328360140323,-0.00608487130701542,0.00153589838486225));
#687=CARTESIAN_POINT('',(0.00966328360140323,-0.00608487130701542,0.000381197846482994));
#688=CARTESIAN_POINT('',(0.00966328360140323,-0.00608487130701542,0.000381197846482994));
#689=CARTESIAN_POINT('',(0.00566328360140324,-0.00608487130701542,0.005));
#690=CARTESIAN_POINT('',(0.00566328360140324,-0.00608487130701542,0.00730940107675851));
#691=CARTESIAN_POINT('',(0.00566328360140324,-0.00608487130701542,0.00730940107675851));
#692=CARTESIAN_POINT('',(0.00566328360140324,-0.00608487130701542,0.005));
#693=CARTESIAN_POINT('',(0.00766328360140324,-0.00608487130701542,0.00846410161513776));
#694=CARTESIAN_POINT('',(0.00966328360140324,-0.00608487130701542,0.00961880215351701));
#695=CARTESIAN_POINT('',(0.00966328360140324,-0.00608487130701542,0.00961880215351701));
#696=CARTESIAN_POINT('',(0.00766328360140324,-0.00608487130701542,0.00846410161513776));
#697=CARTESIAN_POINT('',(0.0116632836014032,-0.00608487130701542,0.00846410161513776));
#698=CARTESIAN_POINT('',(0.0136632836014032,-0.00608487130701542,0.0073094010767585));
#699=CARTESIAN_POINT('',(0.0136632836014032,-0.00608487130701542,0.0073094010767585));
#700=CARTESIAN_POINT('',(0.0116632836014032,-0.00608487130701542,0.00846410161513776));
#701=CARTESIAN_POINT('',(0.0136632836014032,-0.00608487130701542,0.005));
#702=CARTESIAN_POINT('',(0.0136632836014032,-0.00608487130701542,0.0026905989232415));
#703=CARTESIAN_POINT('',(0.0136632836014032,-0.00608487130701542,0.0026905989232415));
#704=CARTESIAN_POINT('',(0.0136632836014032,-0.00608487130701542,0.005));
#705=CARTESIAN_POINT('',(0.0116632836014032,-0.00608487130701542,0.00153589838486224));
#706=CARTESIAN_POINT('',(0.0116632836014032,-0.00608487130701542,0.00153589838486224));
#707=CARTESIAN_POINT('',(0.00966328360140324,-0.00608487130701542,0.005));
#708=MECHANICAL_DESIGN_GEOMETRIC_PRESENTATION_REPRESENTATION('',(#429),
#709);
#709=(
GEOMETRIC_REPRESENTATION_CONTEXT(3)
GLOBAL_UNCERTAINTY_ASSIGNED_CONTEXT((#710))
GLOBAL_UNIT_ASSIGNED_CONTEXT((#713,#712,#711))
REPRESENTATION_CONTEXT('Part 1','TOP_LEVEL_ASSEMBLY_PART')
);
#710=UNCERTAINTY_MEASURE_WITH_UNIT(LENGTH_MEASURE(2.E-5),#713,
'DISTANCE_ACCURACY_VALUE','Maximum Tolerance applied to model');
#711=(
NAMED_UNIT(*)
SI_UNIT($,.STERADIAN.)
SOLID_ANGLE_UNIT()
);
#712=(
NAMED_UNIT(*)
PLANE_ANGLE_UNIT()
SI_UNIT($,.RADIAN.)
);
#713=(
LENGTH_UNIT()
NAMED_UNIT(*)
SI_UNIT($,.METRE.)
);
#714=PRODUCT_DEFINITION_SHAPE('','',#715);
#715=PRODUCT_DEFINITION('','',#717,#716);
#716=PRODUCT_DEFINITION_CONTEXT('',#723,'design');
#717=PRODUCT_DEFINITION_FORMATION_WITH_SPECIFIED_SOURCE('','',#719,
 .NOT_KNOWN.);
#718=PRODUCT_RELATED_PRODUCT_CATEGORY('','',(#719));
#719=PRODUCT('Part 1','Part 1','Part 1',(#721));
#720=PRODUCT_CATEGORY('','');
#721=PRODUCT_CONTEXT('',#723,'mechanical');
#722=APPLICATION_PROTOCOL_DEFINITION('international standard',
'ap242_managed_model_based_3d_engineering',2020,#723);
#723=APPLICATION_CONTEXT('managed model based 3d engineering');
ENDSEC;
END-ISO-10303-21;
